<svg width="11" height="16" viewBox="0 0 11 16" fill="none" xmlns="http://www.w3.org/2000/svg">
<path d="M5.49114 0C2.46216 0 0 2.46216 0 5.49114C0 6.5008 0.301127 7.51047 0.885668 8.46699C2.01932 10.3446 5.1723 15.0032 5.19002 15.0386C5.26087 15.1272 5.36715 15.1981 5.49114 15.1981C5.61514 15.1981 5.72142 15.1449 5.79227 15.0386C5.8277 14.9855 8.98068 10.3269 10.1143 8.46699C10.6989 7.49275 11 6.5008 11 5.49114C10.9823 2.46216 8.52013 0 5.49114 0ZM9.49436 8.09501C8.57327 9.61836 6.30596 13.0016 5.49114 14.2061C4.67633 13.0016 2.40902 9.61836 1.48792 8.09501C0.974235 7.24477 0.708535 6.37681 0.708535 5.49114C0.708535 2.85185 2.85185 0.708535 5.49114 0.708535C8.13043 0.708535 10.2738 2.85185 10.2738 5.49114C10.2738 6.37681 10.0081 7.24477 9.49436 8.09501Z" fill="white"/>
<path d="M5.49148 2.81641C4.02127 2.81641 2.83447 4.0032 2.83447 5.47341C2.83447 6.94362 4.02127 8.13042 5.49148 8.13042C6.96169 8.13042 8.14848 6.94362 8.14848 5.47341C8.14848 4.0032 6.96169 2.81641 5.49148 2.81641ZM5.49148 7.42188C4.41096 7.42188 3.54301 6.55393 3.54301 5.47341C3.54301 4.3929 4.41096 3.52494 5.49148 3.52494C6.57199 3.52494 7.43995 4.3929 7.43995 5.47341C7.43995 6.55393 6.57199 7.42188 5.49148 7.42188Z" fill="white"/>
</svg>
