<svg width="14" height="15" viewBox="0 0 14 15" fill="none" xmlns="http://www.w3.org/2000/svg">
<path d="M13.9122 4.78334L12.5417 2.41122C12.4639 2.27353 12.3392 2.16833 12.1904 2.11471C12.0416 2.06109 11.8785 2.06261 11.7307 2.119L10.1805 2.74406C9.8913 2.53511 9.58192 2.35556 9.25701 2.20807L9.02261 0.562589C9.00169 0.406156 8.92445 0.262719 8.80536 0.159157C8.68626 0.0555963 8.53349 -0.000979993 8.37567 3.14482e-05H5.62538C5.46841 -0.00151564 5.31623 0.0540657 5.1972 0.156417C5.07818 0.258768 5.00043 0.400905 4.97844 0.556339L4.74248 2.20651C4.41865 2.35514 4.1099 2.53463 3.82051 2.7425L2.26722 2.11744C2.12139 2.05999 1.95968 2.0573 1.81202 2.10987C1.66436 2.16245 1.54073 2.26672 1.46402 2.4034L0.0888753 4.78177C0.00963692 4.91811 -0.0178635 5.07842 0.0114055 5.23338C0.0406745 5.38833 0.124756 5.52757 0.248267 5.62561L1.5609 6.65228C1.52045 7.00794 1.52045 7.36704 1.5609 7.7227L0.246704 8.75093C0.124901 8.84992 0.0422945 8.98901 0.013664 9.14333C-0.0149664 9.29765 0.012248 9.45712 0.0904379 9.59321L1.46245 11.9653C1.54055 12.1028 1.66521 12.2078 1.81394 12.2614C1.96267 12.315 2.12566 12.3136 2.27348 12.2575L3.82363 11.6325C4.1129 11.8414 4.42228 12.0209 4.74717 12.1685L4.97844 13.814C4.99935 13.9704 5.0766 14.1138 5.19569 14.2174C5.31479 14.3209 5.46756 14.3775 5.62538 14.3765H8.37567C8.53237 14.3777 8.68417 14.3219 8.80287 14.2196C8.92157 14.1173 8.99909 13.9754 9.02104 13.8202L9.25701 12.1716C9.58085 12.023 9.8896 11.8435 10.179 11.6356L11.7323 12.2607C11.8781 12.3178 12.0397 12.3203 12.1873 12.2678C12.3349 12.2152 12.4585 12.1111 12.5355 11.9747L13.9137 9.58852C13.9908 9.45254 14.0169 9.29358 13.9874 9.14011C13.9579 8.98664 13.8747 8.84868 13.7528 8.75093L12.4401 7.72426C12.4802 7.36858 12.4802 7.00953 12.4401 6.65384L13.7543 5.62561C13.8767 5.52703 13.9598 5.38802 13.9887 5.2336C14.0177 5.07919 13.9905 4.91952 13.9122 4.78334ZM13.3668 5.13337L11.9167 6.26786C11.8743 6.30114 11.8412 6.34482 11.8206 6.39465C11.8001 6.44448 11.7928 6.49878 11.7995 6.55227C11.8603 6.97356 11.8603 7.40142 11.7995 7.82271C11.7928 7.8762 11.8001 7.9305 11.8206 7.98033C11.8412 8.03016 11.8743 8.07384 11.9167 8.10712L13.3668 9.24004C13.3708 9.24579 13.3729 9.2526 13.3729 9.25958C13.3729 9.26656 13.3708 9.27337 13.3668 9.27911L11.9995 11.6669C11.9968 11.6717 11.9926 11.6755 11.9874 11.6775C11.9823 11.6795 11.9766 11.6796 11.9713 11.6778L10.2524 10.9902C10.2024 10.9702 10.1481 10.9634 10.0947 10.9705C10.0413 10.9776 9.99069 10.9984 9.9477 11.0309C9.6118 11.2884 9.24416 11.5016 8.85384 11.6653C8.80343 11.686 8.75931 11.7196 8.72587 11.7626C8.69243 11.8056 8.67082 11.8567 8.6632 11.9106L8.40536 13.7358C8.40536 13.7358 8.39442 13.7514 8.37879 13.7514H5.62538C5.61898 13.7524 5.61247 13.7508 5.60722 13.747C5.60198 13.7432 5.5984 13.7375 5.59725 13.7311L5.33629 11.9091C5.32866 11.8551 5.30706 11.8041 5.27362 11.761C5.24017 11.718 5.19606 11.6845 5.14565 11.6637C4.75483 11.505 4.38695 11.2948 4.05178 11.0387C4.00811 11.0046 3.95615 10.9827 3.90123 10.9753C3.84631 10.9678 3.79041 10.9752 3.73925 10.9965L2.04689 11.6731C2.03928 11.6756 2.03107 11.6755 2.02348 11.673C2.01589 11.6705 2.00931 11.6656 2.0047 11.659L0.632681 9.28692C0.628102 9.28055 0.625639 9.2729 0.625639 9.26505C0.625639 9.2572 0.628102 9.24955 0.632681 9.24317L2.08283 8.10868C2.12523 8.0754 2.15831 8.03173 2.17884 7.98189C2.19938 7.93206 2.20668 7.87776 2.20003 7.82427C2.17166 7.61343 2.15653 7.40101 2.15471 7.18827C2.15661 6.97605 2.17174 6.76416 2.20003 6.55383C2.20668 6.50034 2.19938 6.44605 2.17884 6.39621C2.15831 6.34638 2.12523 6.3027 2.08283 6.26943L0.634244 5.13493C0.629183 5.12969 0.626355 5.12269 0.626355 5.1154C0.626355 5.10811 0.629183 5.10111 0.634244 5.09587L2.01251 2.70969C2.01516 2.70484 2.01943 2.70109 2.02458 2.69909C2.02973 2.69709 2.03541 2.69697 2.04064 2.69875L3.75957 3.38632C3.80955 3.40638 3.86388 3.41318 3.91727 3.40606C3.97066 3.39894 4.0213 3.37814 4.06428 3.34569C4.40015 3.08812 4.7678 2.87488 5.15815 2.71125C5.20856 2.69053 5.25267 2.65699 5.28612 2.61395C5.31956 2.57091 5.34117 2.51988 5.34879 2.46591L5.59257 0.640722C5.59257 0.640722 5.60351 0.625096 5.61913 0.625096H8.36942C8.37582 0.624184 8.38233 0.625791 8.38758 0.62958C8.39282 0.633368 8.39639 0.639043 8.39754 0.64541L8.65851 2.46747C8.66613 2.52144 8.68774 2.57247 8.72118 2.61551C8.75463 2.65855 8.79874 2.69209 8.84915 2.71281C9.23995 2.87159 9.60781 3.0818 9.94301 3.33788C9.98669 3.37198 10.0386 3.39387 10.0936 3.40128C10.1485 3.4087 10.2044 3.40137 10.2555 3.38007L11.9542 2.70343C11.9618 2.7007 11.97 2.70061 11.9777 2.70316C11.9853 2.70571 11.9919 2.71076 11.9964 2.7175L13.3684 5.08962C13.3727 5.09616 13.3749 5.1039 13.3746 5.11175C13.3744 5.1196 13.3716 5.12716 13.3668 5.13337Z" fill="white"/>
<path d="M6.99909 3.73779C6.31674 3.7381 5.6498 3.94072 5.0826 4.32004C4.5154 4.69936 4.0734 5.23834 3.81249 5.86884C3.55158 6.49933 3.48347 7.19304 3.61678 7.86224C3.75009 8.53144 4.07883 9.14609 4.56143 9.62847C5.04404 10.1109 5.65883 10.4393 6.32809 10.5723C6.99735 10.7053 7.69103 10.6369 8.3214 10.3757C8.95178 10.1145 9.49056 9.67227 9.86962 9.1049C10.2487 8.53753 10.451 7.8705 10.451 7.18815C10.4498 6.27317 10.0856 5.39604 9.4385 4.7492C8.79136 4.10235 7.91407 3.73862 6.99909 3.73779ZM6.99909 10.0134C6.44036 10.0131 5.89428 9.84717 5.42987 9.53653C4.96545 9.2259 4.60357 8.78454 4.38997 8.26826C4.17637 7.75198 4.12065 7.18395 4.22984 6.636C4.33903 6.08805 4.60823 5.58478 5.00342 5.18981C5.39861 4.79485 5.90203 4.52592 6.45004 4.41703C6.99805 4.30814 7.56604 4.36418 8.0822 4.57807C8.59837 4.79196 9.03952 5.15408 9.3499 5.61866C9.66028 6.08325 9.82594 6.62943 9.82594 7.18815C9.82511 7.93748 9.52697 8.65586 8.99697 9.18557C8.46696 9.71528 7.74842 10.013 6.99909 10.0134Z" fill="white"/>
</svg>
