<svg width="18" height="17" viewBox="0 0 18 17" fill="none" xmlns="http://www.w3.org/2000/svg">
<path d="M8.50174 17C4.5736 17 1.17825 14.3372 0.245198 10.5252C0.082496 9.8606 0 9.17886 0 8.49826C0 7.857 0.0740939 7.21116 0.220755 6.57754C0.793266 4.10034 2.4306 2.02647 4.71301 0.887937C4.88411 0.802767 5.0575 0.722181 5.23472 0.648468C7.30936 -0.215837 9.68878 -0.215838 11.763 0.646558C11.9406 0.720271 12.1144 0.800475 12.2851 0.885646C14.5889 2.03258 16.2327 4.12631 16.795 6.63062C16.9332 7.24782 17.0035 7.87648 17.0035 8.49864C17.0035 9.17847 16.921 9.86022 16.7583 10.5255C15.8252 14.3376 12.4299 17 8.50174 17ZM8.50174 0.760755C7.47321 0.760755 6.47293 0.960123 5.52881 1.35313C5.36763 1.42073 5.20989 1.49368 5.05407 1.57121C2.97675 2.60738 1.48608 4.49488 0.965134 6.74979C0.83184 7.32688 0.76424 7.91505 0.76424 8.49826C0.76424 9.11737 0.83948 9.73838 0.987286 10.3437C1.83631 13.8132 4.9265 16.2361 8.50174 16.2361C12.077 16.2361 15.1672 13.8128 16.0162 10.3437C16.1648 9.738 16.2396 9.11698 16.2396 8.49826C16.2396 7.93224 16.1758 7.36011 16.0498 6.79753C15.538 4.51894 14.042 2.61311 11.9452 1.5693C11.7894 1.49177 11.6313 1.41882 11.4697 1.3516C10.5271 0.95974 9.52837 0.760755 8.50174 0.760755Z" fill="white"/>
<path d="M8.31923 13.9834C7.78338 13.9834 7.40527 13.5579 7.40527 13.0061C7.40527 12.4232 7.79904 12.0134 8.33527 12.0134C8.90243 12.0134 9.26489 12.4229 9.26489 13.0061C9.2645 13.5579 8.90243 13.9834 8.31923 13.9834Z" fill="white"/>
<path d="M9.81592 8.17793C9.12272 8.99755 8.87027 9.70641 8.91724 10.51L8.94894 10.9038H7.70385L7.67253 10.4943C7.57782 9.65867 7.86159 8.71339 8.64951 7.76774C9.35837 6.93246 9.7529 6.31793 9.7529 5.60907C9.7529 4.8055 9.24876 4.26965 8.25574 4.25361C7.68858 4.25361 7.05801 4.44304 6.66424 4.7421L6.28613 3.74908C6.8216 3.37097 7.70423 3.1189 8.53951 3.1189C10.3518 3.1189 11.171 4.23795 11.171 5.4353C11.171 6.50737 10.5725 7.27925 9.81592 8.17793Z" fill="white"/>
</svg>
