<svg width="37" height="30" viewBox="0 0 37 30" fill="none" xmlns="http://www.w3.org/2000/svg">
<path d="M6.88831 29.5172H30.1658C31.6107 29.5059 33.015 29.0176 34.178 28.1222C35.341 27.2268 36.203 25.9702 36.6406 24.5322C37.0782 23.0942 37.0691 21.5484 36.6145 20.1162C36.1599 18.6839 35.2831 17.4385 34.1096 16.5582C35.1396 15.5806 35.9336 14.3626 36.4269 13.0035C36.9202 11.6445 37.0988 10.1828 36.9481 8.73792C36.7974 7.29302 36.3217 5.90581 35.5598 4.6895C34.7979 3.47319 33.7714 2.46226 32.564 1.73921C31.3567 1.01617 30.0028 0.601494 28.6127 0.52904C27.2227 0.456587 25.836 0.728406 24.5657 1.32231C23.2954 1.91622 22.1777 2.81538 21.3036 3.94642C20.4295 5.07745 19.8238 6.4083 19.5361 7.83035C18.3491 6.77989 16.899 6.10624 15.3571 5.88898C13.8152 5.67173 12.246 5.91996 10.8349 6.60434C9.42378 7.28872 8.22975 8.38064 7.3939 9.75108C6.55806 11.1215 6.11533 12.7132 6.11804 14.338C6.13111 14.6423 6.15939 14.9457 6.20277 15.247C4.44421 15.4207 2.81797 16.2974 1.66383 17.6939C0.509683 19.0904 -0.0830766 20.8986 0.00939826 22.7408C0.101873 24.5829 0.872428 26.3165 2.16007 27.5793C3.4477 28.8421 5.15281 29.5364 6.91912 29.5172H6.88831ZM28.1785 2.07883C29.6996 2.07571 31.1834 2.56975 32.422 3.49168C33.6607 4.41361 34.592 5.71721 35.0854 7.21974C35.5789 8.72227 35.6098 10.3484 35.1737 11.8702C34.7376 13.3919 33.8565 14.733 32.6538 15.7055H32.5999C32.4714 15.6501 32.3403 15.6018 32.207 15.5607L31.9914 15.4964L31.6216 15.3837L31.2904 15.3194L31.0285 15.2711C30.8283 15.2711 30.6203 15.2229 30.4123 15.2148C30.3 14.8476 30.161 14.49 29.9964 14.1449C29.1809 12.5095 27.8802 11.1938 26.289 10.3948C24.6977 9.59584 22.9015 9.35651 21.1691 9.71266C21.1229 9.64831 21.069 9.58396 21.0304 9.5196L20.8995 9.3185C20.996 7.36852 21.8044 5.53129 23.1583 4.18468C24.5123 2.83807 26.3088 2.08446 28.1785 2.07883ZM6.97303 16.8236H7.09628C7.20423 16.8266 7.31144 16.8043 7.41007 16.7583C7.5087 16.7124 7.59624 16.644 7.66628 16.5582C7.74113 16.4645 7.79459 16.3542 7.82262 16.2358C7.85064 16.1173 7.8525 15.9937 7.82803 15.8744C7.71941 15.3782 7.66259 14.8711 7.65857 14.3621C7.65722 12.9206 8.08761 11.5147 8.88949 10.3413C9.69136 9.16794 10.8246 8.28586 12.1304 7.81858C13.4362 7.3513 14.8493 7.32222 16.1718 7.73543C17.4942 8.14864 18.6598 8.98343 19.5053 10.1229L19.7595 10.4849C19.875 10.6699 19.9906 10.8469 20.0907 11.0399C20.1735 11.201 20.3064 11.3277 20.4674 11.3994C20.6284 11.471 20.808 11.4833 20.9765 11.4341C22.669 10.9479 24.4771 11.1831 26.0037 12.088C27.5302 12.993 28.6504 14.4937 29.1183 16.2605C29.1649 16.4345 29.2662 16.5871 29.4059 16.6936C29.5456 16.8001 29.7157 16.8544 29.8885 16.8478H30.0041C30.1119 16.8478 30.212 16.8478 30.3199 16.8478C30.7257 16.8636 31.1286 16.9257 31.5215 17.0328L31.7757 17.1052C31.8149 17.126 31.8562 17.1422 31.8989 17.1534L32.3919 17.3626C33.4852 17.8971 34.3713 18.8049 34.9041 19.9362C35.4368 21.0675 35.5843 22.3546 35.3222 23.5853C35.0602 24.8159 34.4042 25.9164 33.4626 26.7053C32.5209 27.4942 31.3499 27.9242 30.1427 27.9245H6.88831C6.19035 27.9186 5.50032 27.7693 4.85762 27.485C4.21492 27.2007 3.63214 26.787 3.14254 26.2675C2.65295 25.748 2.26613 25.1329 2.00417 24.4572C1.74222 23.7816 1.61025 23.0587 1.61581 22.3298C1.62138 21.6009 1.76436 20.8803 2.0366 20.2091C2.30883 19.5379 2.70499 18.9293 3.20246 18.418C3.69992 17.9067 4.28895 17.5028 4.9359 17.2292C5.58286 16.9556 6.27508 16.8178 6.97303 16.8236Z" fill="#E1E1E1"/>
</svg>
