<svg width="36" height="38" viewBox="0 0 36 38" fill="none" xmlns="http://www.w3.org/2000/svg">
<path d="M35.9422 10.0945C35.9422 8.86339 35.4517 7.6827 34.5786 6.81217C33.7055 5.94165 32.5213 5.45259 31.2865 5.45259H28.9121V2.94596C28.9121 2.69974 28.814 2.4636 28.6393 2.28949C28.4647 2.11539 28.2279 2.01758 27.9809 2.01758C27.734 2.01758 27.4971 2.11539 27.3225 2.28949C27.1479 2.4636 27.0498 2.69974 27.0498 2.94596V5.45259H8.89244V2.94596C8.89244 2.69974 8.79433 2.4636 8.61971 2.28949C8.44509 2.11539 8.20825 2.01758 7.96129 2.01758C7.71434 2.01758 7.4775 2.11539 7.30287 2.28949C7.12825 2.4636 7.03015 2.69974 7.03015 2.94596V5.45259H4.65573C3.42095 5.45259 2.23675 5.94165 1.36363 6.81217C0.490513 7.6827 0 8.86339 0 10.0945L0 32.3757C0 33.6068 0.490513 34.7875 1.36363 35.658C2.23675 36.5285 3.42095 37.0176 4.65573 37.0176H31.2865C32.5213 37.0176 33.7055 36.5285 34.5786 35.658C35.4517 34.7875 35.9422 33.6068 35.9422 32.3757V10.0945ZM4.65573 7.30935H7.03015V9.07328C7.03015 9.3195 7.12825 9.55564 7.30287 9.72975C7.4775 9.90385 7.71434 10.0017 7.96129 10.0017C8.20825 10.0017 8.44509 9.90385 8.61971 9.72975C8.79433 9.55564 8.89244 9.3195 8.89244 9.07328V7.30935H27.0498V9.07328C27.0498 9.3195 27.1479 9.55564 27.3225 9.72975C27.4971 9.90385 27.734 10.0017 27.9809 10.0017C28.2279 10.0017 28.4647 9.90385 28.6393 9.72975C28.814 9.55564 28.9121 9.3195 28.9121 9.07328V7.30935H31.2865C32.0273 7.30935 32.7379 7.60279 33.2617 8.12511C33.7856 8.64742 34.0799 9.35583 34.0799 10.0945V13.5295H1.86229V10.0945C1.86229 9.72875 1.93454 9.36658 2.07493 9.02867C2.21531 8.69076 2.42107 8.38373 2.68047 8.12511C3.20434 7.60279 3.91486 7.30935 4.65573 7.30935ZM31.2865 35.1608H4.65573C3.91486 35.1608 3.20434 34.8674 2.68047 34.3451C2.1566 33.8227 1.86229 33.1143 1.86229 32.3757V15.3863H34.0799V32.3757C34.0799 33.1143 33.7856 33.8227 33.2617 34.3451C32.7379 34.8674 32.0273 35.1608 31.2865 35.1608Z" fill="#A7A7A7"/>
<path d="M24.1207 20.1123L15.8336 27.4001L12.109 23.6402C11.9114 23.4925 11.6631 23.429 11.4186 23.4638C11.1741 23.4987 10.9535 23.6289 10.8054 23.8259C10.6845 23.9866 10.6191 24.182 10.6191 24.3829C10.6191 24.5838 10.6845 24.7792 10.8054 24.9399L15.0886 29.3497C15.1792 29.442 15.2881 29.5145 15.4084 29.5624C15.5286 29.6104 15.6576 29.6328 15.787 29.6282C16.007 29.6109 16.2173 29.5303 16.3922 29.3962L25.3778 21.5049C25.5548 21.3302 25.662 21.0971 25.6791 20.8493C25.6962 20.6016 25.6222 20.3561 25.4709 20.1588C25.2957 19.9782 25.057 19.8725 24.8052 19.8639C24.5534 19.8552 24.308 19.9443 24.1207 20.1123Z" fill="#A7A7A7"/>
<path d="M17.9707 2.82056V9.1382" stroke="#A7A7A7" stroke-width="4" stroke-linecap="round" stroke-linejoin="round"/>
</svg>
