<svg width="37" height="34" viewBox="0 0 37 34" fill="none" xmlns="http://www.w3.org/2000/svg">
<path d="M28.459 33.0244C28.3885 33.0244 28.318 33.0193 28.2484 33.0091C28.0315 32.9777 27.8256 32.8992 27.6472 32.78C27.4688 32.6608 27.3229 32.5041 27.2212 32.3226L19.9704 19.352L13.1539 24.5992L14.1405 29.0497C14.1877 29.2615 14.1775 29.481 14.1111 29.6883C14.0446 29.8956 13.9238 30.0841 13.7597 30.2369L12.5878 31.3307C12.4326 31.4756 12.2429 31.5843 12.0343 31.6481C11.8257 31.7118 11.6039 31.7288 11.3869 31.6977C11.1699 31.6666 10.9638 31.5882 10.7853 31.469C10.6068 31.3497 10.4608 31.1929 10.3593 31.0112L8.69415 28.0328L7.71644 28.7859C7.37185 29.051 6.93382 29.1868 6.48779 29.1668C6.04175 29.1468 5.61969 28.9724 5.3039 28.6777C4.98812 28.3831 4.80125 27.9892 4.77975 27.5729C4.75825 27.1566 4.90365 26.7477 5.1876 26.4261L5.99447 25.5129L2.80261 23.9588C2.60809 23.8639 2.44021 23.7276 2.31256 23.561C2.1849 23.3943 2.10106 23.202 2.06779 22.9995C2.03453 22.797 2.05279 22.5901 2.12108 22.3954C2.18938 22.2007 2.3058 22.0238 2.46093 21.8789L3.63283 20.7851C3.79689 20.6324 3.99895 20.52 4.22093 20.458C4.44291 20.3959 4.6779 20.3862 4.90489 20.4297L9.67334 21.3505L15.2954 14.9885L1.39746 8.2212C1.20293 8.12633 1.03506 7.99006 0.907406 7.82342C0.779753 7.65678 0.695905 7.46444 0.662642 7.26196C0.629379 7.05947 0.647633 6.85252 0.71593 6.65784C0.784226 6.46316 0.900648 6.28621 1.05578 6.1413L2.93026 4.39181C3.09459 4.23947 3.29667 4.12732 3.51856 4.06533C3.74046 4.00333 3.97532 3.9934 4.20231 4.0364L22.5015 7.57059L28.6161 1.36999C28.6465 1.33884 28.68 1.31052 28.7163 1.28545C29.0997 0.896055 29.5636 0.583074 30.0799 0.365336C30.5963 0.147599 31.1546 0.0296036 31.7211 0.0184503C32.2876 0.00729701 32.8506 0.103216 33.3764 0.300436C33.9022 0.497657 34.3797 0.792103 34.7804 1.16606C35.1811 1.54002 35.4966 1.98576 35.7079 2.47646C35.9192 2.96717 36.022 3.4927 36.01 4.02143C35.9981 4.55017 35.8716 5.07119 35.6383 5.55314C35.4051 6.03509 35.0697 6.46802 34.6525 6.82587C34.6256 6.85971 34.5953 6.89102 34.5619 6.91937L27.9184 12.6263L31.705 29.7055C31.7521 29.9173 31.742 30.1368 31.6755 30.3441C31.6091 30.5513 31.4883 30.7399 31.3242 30.8927L29.4497 32.6422C29.1866 32.8869 28.8304 33.0243 28.459 33.0244ZM20.1921 17.6755C20.239 17.6757 20.2859 17.68 20.332 17.6884C20.4344 17.708 20.5309 17.7487 20.6144 17.8074C20.698 17.8661 20.7665 17.9413 20.815 18.0278L28.4672 31.7162L30.3307 29.9654L26.4617 12.5276C26.4372 12.4168 26.4438 12.3018 26.4811 12.1941C26.5184 12.0863 26.585 11.9894 26.6744 11.9129L33.5088 6.04205C33.5399 6.00091 33.5763 5.96347 33.6172 5.93058C33.9122 5.69728 34.1522 5.4094 34.322 5.08514C34.4918 4.76088 34.5877 4.40727 34.6037 4.04666C34.6196 3.68605 34.5553 3.32627 34.4147 2.99005C34.2741 2.65383 34.0604 2.34847 33.7869 2.09326C33.5135 1.83805 33.1863 1.63855 32.8261 1.50734C32.4658 1.37613 32.0803 1.31608 31.694 1.33097C31.3076 1.34587 30.9287 1.43538 30.5813 1.59386C30.2339 1.75235 29.9254 1.97635 29.6755 2.25173C29.6387 2.29157 29.597 2.32724 29.5513 2.35803L23.2658 8.73157C23.1831 8.81412 23.0793 8.87566 22.964 8.91039C22.8488 8.94512 22.726 8.95189 22.6072 8.93008L3.91823 5.32105L2.04927 7.06855L16.7142 14.2003C16.807 14.2455 16.8878 14.3094 16.9507 14.3875C17.0136 14.4656 17.0571 14.5558 17.0779 14.6515C17.0986 14.7473 17.0962 14.8461 17.0708 14.9409C17.0454 15.0357 16.9976 15.1239 16.931 15.1993L10.4877 22.4904C10.4066 22.5827 10.3 22.6524 10.1794 22.6921C10.0588 22.7317 9.92882 22.7397 9.80368 22.7152L4.62081 21.7143L3.45442 22.8062L7.41327 24.7247C7.50605 24.7699 7.58684 24.8339 7.64975 24.9119C7.71265 24.99 7.75608 25.0802 7.77686 25.1759C7.79764 25.2717 7.79524 25.3705 7.76985 25.4653C7.74446 25.5601 7.6967 25.6483 7.63008 25.7237L6.27158 27.2605C6.20985 27.3306 6.17828 27.4196 6.18304 27.5102C6.1878 27.6009 6.22853 27.6866 6.29731 27.7507C6.36609 27.8148 6.45798 27.8527 6.55507 27.8571C6.65217 27.8614 6.74751 27.8318 6.82253 27.7741L8.46851 26.5062C8.54922 26.444 8.6438 26.3994 8.74534 26.3757C8.84687 26.352 8.95279 26.3498 9.05537 26.3692C9.15794 26.3886 9.25458 26.4291 9.33823 26.4878C9.42188 26.5465 9.49041 26.622 9.53884 26.7085L11.6054 30.4047L12.7663 29.3097L11.6919 24.4775C11.666 24.3607 11.6747 24.2395 11.7172 24.127C11.7596 24.0145 11.8341 23.9149 11.9327 23.839L19.7447 17.8254C19.8706 17.7284 20.0288 17.6754 20.1921 17.6755Z" fill="#A7A7A7"/>
</svg>
