<svg width="41" height="33" viewBox="0 0 41 33" fill="none" xmlns="http://www.w3.org/2000/svg">
<path d="M11.0808 18.8157C13.2509 18.8157 15.0101 17.0849 15.0101 14.9498C15.0101 12.8148 13.2509 11.084 11.0808 11.084C8.91061 11.084 7.15137 12.8148 7.15137 14.9498C7.15137 17.0849 8.91061 18.8157 11.0808 18.8157Z" stroke="#A7A7A7" stroke-width="2" stroke-miterlimit="10"/>
<path d="M20.2943 12.9036C19.8387 12.903 19.3875 12.9909 18.9664 13.1622C18.5454 13.3334 18.1629 13.5847 17.8407 13.9017C17.5186 14.2186 17.2631 14.595 17.089 15.0092C16.9149 15.4234 16.8256 15.8674 16.8262 16.3156V20.4083H39.6935V19.5007C39.6935 14.723 31.8176 12.9036 26.1158 12.9036H20.2943Z" stroke="#A7A7A7" stroke-width="2" stroke-miterlimit="10"/>
<path d="M15.7072 21.6227V20.6352C15.7061 20.3941 15.6079 20.1633 15.4342 19.9932C15.2606 19.8231 15.0255 19.7276 14.7804 19.7276H7.38289C7.13782 19.7276 6.90273 19.8231 6.72904 19.9932C6.55534 20.1633 6.4572 20.3941 6.45607 20.6352V21.6227H5.17475V4.97856C5.17475 4.76754 5.08984 4.5651 4.93858 4.4155C4.78731 4.26589 4.582 4.18129 4.36752 4.18018H2.06541C1.85019 4.18018 1.64378 4.26429 1.49159 4.41402C1.3394 4.56374 1.25391 4.76681 1.25391 4.97856V31.5982C1.25504 31.8093 1.34103 32.0113 1.49309 32.1601C1.64516 32.3089 1.85092 32.3924 2.06541 32.3924H4.37606C4.59054 32.3924 4.79631 32.3089 4.94837 32.1601C5.10044 32.0113 5.18643 31.8093 5.18756 31.5982V26.934H35.7642V31.5982C35.7642 31.8089 35.8492 32.0109 36.0006 32.1598C36.152 32.3088 36.3573 32.3924 36.5714 32.3924H38.8863C39.1004 32.3924 39.3057 32.3088 39.4571 32.1598C39.6085 32.0109 39.6935 31.8089 39.6935 31.5982V21.6227H15.7072Z" stroke="#A7A7A7" stroke-width="2" stroke-miterlimit="10"/>
<path d="M15.5104 8.23519H16.561L15.2199 9.45797C15.1559 9.51519 15.1111 9.59018 15.0914 9.67302C15.0716 9.75586 15.0779 9.84264 15.1094 9.92188C15.1409 10.0011 15.196 10.0691 15.2676 10.1168C15.3392 10.1645 15.4239 10.1898 15.5104 10.1891H17.6459C17.7592 10.1891 17.8678 10.1448 17.9479 10.066C18.028 9.98724 18.073 9.88036 18.073 9.76892C18.073 9.65747 18.028 9.55059 17.9479 9.47179C17.8678 9.39299 17.7592 9.34872 17.6459 9.34872H16.5995L17.9363 8.12594C18.0003 8.06871 18.0452 7.99372 18.0649 7.91089C18.0846 7.82805 18.0783 7.74127 18.0469 7.66202C18.0154 7.58278 17.9602 7.5148 17.8886 7.46708C17.817 7.41937 17.7324 7.39416 17.6459 7.39479H15.5104C15.3971 7.39479 15.2884 7.43906 15.2083 7.51786C15.1282 7.59666 15.0832 7.70354 15.0832 7.81499C15.0832 7.92643 15.1282 8.03331 15.2083 8.11211C15.2884 8.19092 15.3971 8.23519 15.5104 8.23519Z" stroke="#A7A7A7" stroke-miterlimit="10"/>
<path d="M19.5683 4.323H20.9009L19.2352 5.82732C19.1625 5.89285 19.1117 5.97856 19.0896 6.0731C19.0675 6.16764 19.075 6.26656 19.1113 6.35677C19.1478 6.44682 19.2108 6.5241 19.2922 6.57874C19.3737 6.63338 19.4698 6.6629 19.5683 6.66352H22.131C22.2612 6.66352 22.3862 6.6126 22.4783 6.52198C22.5704 6.43136 22.6221 6.30845 22.6221 6.18029C22.6221 6.05212 22.5704 5.92921 22.4783 5.83859C22.3862 5.74797 22.2612 5.69706 22.131 5.69706H20.8197L22.4684 4.19274C22.5421 4.12671 22.5936 4.0402 22.6161 3.94468C22.6386 3.84917 22.631 3.74919 22.5944 3.658C22.5578 3.56681 22.4939 3.48873 22.4111 3.43414C22.3283 3.37955 22.2306 3.35102 22.131 3.35234H19.5683C19.5038 3.35234 19.44 3.36484 19.3804 3.38912C19.3208 3.41341 19.2666 3.449 19.221 3.49387C19.1754 3.53875 19.1392 3.59202 19.1145 3.65064C19.0899 3.70927 19.0771 3.77211 19.0771 3.83557C19.0771 3.89903 19.0899 3.96186 19.1145 4.02049C19.1392 4.07912 19.1754 4.13239 19.221 4.17726C19.2666 4.22214 19.3208 4.25773 19.3804 4.28202C19.44 4.3063 19.5038 4.3188 19.5683 4.3188V4.323Z" stroke="#A7A7A7" stroke-miterlimit="10"/>
<path d="M24.6939 1.89428H26.697L24.3181 4.07092C24.2368 4.14557 24.1802 4.24249 24.1556 4.34913C24.131 4.45578 24.1395 4.56724 24.18 4.66909C24.2205 4.77094 24.2911 4.85848 24.3827 4.9204C24.4743 4.98231 24.5828 5.01575 24.6939 5.01637H28.1108C28.258 5.01637 28.3993 4.95882 28.5034 4.85637C28.6075 4.75393 28.666 4.61499 28.666 4.47011C28.666 4.32523 28.6075 4.18629 28.5034 4.08384C28.3993 3.9814 28.258 3.92385 28.1108 3.92385H26.1076L28.4909 1.74721C28.5724 1.67231 28.6291 1.57501 28.6536 1.46797C28.6781 1.36093 28.6692 1.24912 28.6282 1.14709C28.5872 1.04506 28.5159 0.957555 28.4236 0.895961C28.3313 0.834366 28.2223 0.80154 28.1108 0.801759H24.6939C24.5467 0.801759 24.4054 0.859311 24.3013 0.961755C24.1972 1.0642 24.1387 1.20314 24.1387 1.34802C24.1387 1.4929 24.1972 1.63184 24.3013 1.73428C24.4054 1.83673 24.5467 1.89428 24.6939 1.89428V1.89428Z" stroke="#A7A7A7" stroke-miterlimit="10"/>
</svg>
