<svg width="44" height="33" viewBox="0 0 44 33" fill="none" xmlns="http://www.w3.org/2000/svg">
<path d="M38.0385 4.71691H30.844V4.33994C30.844 1.95663 28.9049 0.0175781 26.5214 0.0175781H16.8199C14.4367 0.0175781 12.4976 1.95663 12.4976 4.33994V4.71691H5.30312C2.46518 4.71691 0.15625 7.02567 0.15625 9.86372V26.8707C0.15625 29.7088 2.46518 32.0176 5.30312 32.0176H38.0385C40.8765 32.0176 43.1853 29.7088 43.1853 26.8707V9.86372C43.1853 7.02567 40.8765 4.71691 38.0385 4.71691ZM13.8403 4.33994C13.8403 2.69701 15.177 1.36026 16.8199 1.36026H26.5214C28.1646 1.36026 29.5013 2.69701 29.5013 4.33994V4.71691H13.8403V4.33994ZM38.0385 30.6749H5.30312C3.20545 30.6749 1.49893 28.9684 1.49893 26.8707V16.4142H41.8427V26.8707C41.8427 28.9684 40.1361 30.6749 38.0385 30.6749ZM41.8427 15.0715H1.49893V9.86372C1.49893 7.76606 3.20545 6.05953 5.30312 6.05953H38.0385C40.1361 6.05953 41.8427 7.76606 41.8427 9.86372V15.0715Z" fill="#A7A7A7"/>
<path d="M21.6705 9.19238C20.3132 9.19238 19.209 10.2966 19.209 11.6539C19.209 13.0112 20.3132 14.1155 21.6705 14.1155C23.0278 14.1155 24.1321 13.0112 24.1321 11.6539C24.1321 10.2966 23.0278 9.19238 21.6705 9.19238ZM21.6705 12.7728C21.0536 12.7728 20.5516 12.2708 20.5516 11.6539C20.5516 11.037 21.0536 10.535 21.6705 10.535C22.2874 10.535 22.7894 11.037 22.7894 11.6539C22.7894 12.2708 22.2874 12.7728 21.6705 12.7728Z" fill="#A7A7A7"/>
</svg>
