<svg width="40" height="31" viewBox="0 0 40 31" fill="none" xmlns="http://www.w3.org/2000/svg">
<path d="M39.2427 4.28309C39.2427 3.72294 39.1324 3.16827 38.918 2.65075C38.7037 2.13323 38.3895 1.66301 37.9934 1.26692C37.5973 0.870828 37.1271 0.556633 36.6096 0.342271C36.0921 0.127909 35.5374 0.0175781 34.9772 0.0175781H20.4745C19.3432 0.0175781 18.2583 0.466979 17.4583 1.26692C16.6584 2.06686 16.209 3.15181 16.209 4.28309V5.90398H8.87229C8.37895 5.90024 7.89505 6.03916 7.47883 6.30403C7.0626 6.5689 6.73181 6.94842 6.52626 7.39691L3.41244 14.2217L1.74889 15.6294C1.20244 16.0999 0.763492 16.6824 0.461761 17.3374C0.160031 17.9924 0.00256484 18.7045 2.62434e-05 19.4257V21.2172C-0.00386201 22.4218 0.424433 23.5879 1.20712 24.5037C1.98981 25.4194 3.07498 26.0241 4.26554 26.2078C4.43325 27.2517 4.96484 28.2026 5.76623 28.8922C6.56762 29.5819 7.58713 29.9657 8.64435 29.976C9.70156 29.9862 10.7283 29.622 11.5429 28.948C12.3574 28.274 12.9073 27.3336 13.0951 26.2931H24.74C24.918 27.3351 25.4589 28.2805 26.2668 28.9621C27.0748 29.6437 28.0977 30.0176 29.1548 30.0176C30.2119 30.0176 31.2348 29.6437 32.0428 28.9621C32.8507 28.2805 33.3916 27.3351 33.5696 26.2931H34.9772C35.5374 26.2931 36.0921 26.1828 36.6096 25.9684C37.1271 25.7541 37.5973 25.4399 37.9934 25.0438C38.3895 24.6477 38.7037 24.1775 38.918 23.66C39.1324 23.1424 39.2427 22.5878 39.2427 22.0276V4.28309ZM8.1045 8.0794C8.16992 7.92944 8.27708 7.80145 8.41322 7.7107C8.54935 7.61994 8.7087 7.57025 8.87229 7.56753H16.209V13.8805H5.45988L8.1045 8.0794ZM8.70167 28.17C8.15331 28.17 7.61726 28.0074 7.16131 27.7027C6.70536 27.398 6.34999 26.965 6.14014 26.4584C5.93029 25.9518 5.87538 25.3943 5.98236 24.8565C6.08934 24.3186 6.35341 23.8246 6.74116 23.4369C7.12891 23.0491 7.62294 22.785 8.16077 22.6781C8.6986 22.5711 9.25607 22.626 9.76269 22.8358C10.2693 23.0457 10.7023 23.4011 11.007 23.857C11.3116 24.313 11.4743 24.849 11.4743 25.3974C11.4743 26.1327 11.1821 26.8379 10.6622 27.3579C10.1422 27.8778 9.43701 28.17 8.70167 28.17ZM29.1761 28.17C28.6278 28.17 28.0917 28.0074 27.6358 27.7027C27.1798 27.398 26.8244 26.965 26.6146 26.4584C26.4047 25.9518 26.3498 25.3943 26.4568 24.8565C26.5638 24.3186 26.8279 23.8246 27.2156 23.4369C27.6034 23.0491 28.0974 22.785 28.6352 22.6781C29.1731 22.5711 29.7305 22.626 30.2372 22.8358C30.7438 23.0457 31.1768 23.4011 31.4814 23.857C31.7861 24.313 31.9487 24.849 31.9487 25.3974C31.9487 26.1327 31.6566 26.8379 31.1366 27.3579C30.6167 27.8778 29.9115 28.17 29.1761 28.17ZM37.5365 21.985C37.5365 22.6637 37.2669 23.3147 36.7869 23.7947C36.307 24.2746 35.656 24.5443 34.9772 24.5443H33.5696C33.3916 23.5023 32.8507 22.5569 32.0428 21.8753C31.2348 21.1937 30.2119 20.8198 29.1548 20.8198C28.0977 20.8198 27.0748 21.1937 26.2668 21.8753C25.4589 22.5569 24.918 23.5023 24.74 24.5443H13.0951C12.9274 23.5004 12.3959 22.5495 11.5945 21.8599C10.7931 21.1702 9.77355 20.7864 8.71634 20.7761C7.65912 20.7659 6.63238 21.13 5.81781 21.8041C5.00325 22.4781 4.45339 23.4185 4.26554 24.459C3.5361 24.286 2.88647 23.8717 2.42194 23.2833C1.95742 22.6949 1.70522 21.9668 1.70623 21.2172V19.4257C1.70634 18.9481 1.80925 18.4761 2.00797 18.0419C2.2067 17.6076 2.49658 17.2213 2.85792 16.909L4.3935 15.5867H37.5365V21.985ZM37.5365 13.8805H17.9152V4.28309C17.9152 3.60432 18.1848 2.95335 18.6648 2.47339C19.1447 1.99342 19.7957 1.72378 20.4745 1.72378H34.9772C35.656 1.72378 36.307 1.99342 36.7869 2.47339C37.2669 2.95335 37.5365 3.60432 37.5365 4.28309V13.8805Z" fill="#A7A7A7"/>
</svg>
