<svg width="62" height="68" viewBox="0 0 62 68" fill="none" xmlns="http://www.w3.org/2000/svg">
<path d="M30.9443 68C13.8809 68 0 54.1191 0 37.0557C0 20.4937 12.9534 6.91424 29.4864 6.14614C30.2603 6.0273 30.9675 6.72873 30.9994 7.52872C31.04 8.3258 30.4168 9.00695 29.6139 9.03883C14.6287 9.73447 2.8898 22.0357 2.8898 37.0557C2.8898 52.522 15.4722 65.1015 30.9356 65.1015C46.3991 65.1015 58.9815 52.522 58.9815 37.0557C58.9815 29.0008 55.5062 21.314 49.4367 15.9836C48.8367 15.4474 48.773 14.5373 49.3034 13.9373C49.8454 13.3373 50.7497 13.2735 51.3497 13.804C58.0481 19.6821 61.8799 28.1602 61.8799 37.0499C61.8886 54.1191 48.0078 68 30.9443 68Z" fill="#757575"/>
<path d="M15.0003 54.8178C14.6293 54.8178 14.2583 54.6758 13.9742 54.3975C13.4148 53.8323 13.4148 52.9077 13.9742 52.3483L29.9218 36.4066C30.4841 35.8414 31.4087 35.8414 31.971 36.4066C32.5333 36.966 32.5333 37.8906 31.971 38.4558L16.0235 54.3975C15.7423 54.6758 15.3713 54.8178 15.0003 54.8178Z" fill="#757575"/>
<path d="M40.6637 48.6005C40.2956 48.6005 39.9217 48.4585 39.6376 48.1774L29.9161 38.4558C29.3509 37.8906 29.3509 36.966 29.9161 36.4066C30.4755 35.8414 31.4001 35.8414 31.9653 36.4066L41.6869 46.1281C42.2521 46.6875 42.2521 47.6122 41.6869 48.1774C41.4057 48.4585 41.0376 48.6005 40.6637 48.6005Z" fill="#757575"/>
<path d="M25.1495 17.3256C24.8684 17.3256 24.593 17.2474 24.3438 17.0793C23.68 16.6329 23.5003 15.7315 23.9467 15.0706L28.935 7.64177L21.4511 2.65056C20.7873 2.20999 20.6018 1.30276 21.0453 0.644803C21.4887 -0.0189523 22.3931 -0.198659 23.051 0.239014L31.7465 6.036C32.0625 6.25049 32.2914 6.58092 32.3639 6.95482C32.4364 7.33453 32.3581 7.72872 32.1465 8.04466L26.3524 16.6793C26.0684 17.0996 25.6133 17.3256 25.1495 17.3256Z" fill="#757575"/>
</svg>
