<svg width="67" height="67" viewBox="0 0 67 67" fill="none" xmlns="http://www.w3.org/2000/svg">
<path d="M33.5 0C26.8743 0 20.3975 1.96474 14.8884 5.64577C9.37936 9.32679 5.08559 14.5588 2.55005 20.6801C0.014515 26.8014 -0.648897 33.5372 0.643708 40.0355C1.93631 46.5339 5.12688 52.503 9.81194 57.1881C14.497 61.8731 20.4661 65.0637 26.9645 66.3563C33.4628 67.6489 40.1986 66.9855 46.3199 64.4499C52.4412 61.9144 57.6732 57.6206 61.3542 52.1116C65.0353 46.6025 67 40.1257 67 33.5C66.998 24.6159 63.4679 16.0962 57.1859 9.81413C50.9038 3.53209 42.3841 0.00199801 33.5 0ZM33.5 63.5106C27.5645 63.5106 21.7622 61.7505 16.827 58.4529C11.8918 55.1553 8.04529 50.4682 5.77386 44.9845C3.50243 39.5008 2.90812 33.4667 4.06609 27.6452C5.22405 21.8237 8.08228 16.4764 12.2793 12.2793C16.4764 8.08226 21.8238 5.22403 27.6452 4.06607C33.4667 2.90811 39.5008 3.50241 44.9846 5.77384C50.4683 8.04527 55.1553 11.8918 58.4529 16.827C61.7505 21.7622 63.5106 27.5645 63.5106 33.5C63.4986 41.4556 60.333 49.082 54.7075 54.7075C49.082 60.3329 41.4556 63.4986 33.5 63.5106Z" fill="#757575"/>
<path d="M35.1726 32.1056V22.5342C36.9955 22.8318 38.7054 23.6125 40.1241 24.7952C40.2572 24.9189 40.4134 25.0152 40.5837 25.0785C40.7541 25.1419 40.9352 25.1711 41.1168 25.1644C41.2984 25.1578 41.4769 25.1154 41.6422 25.0398C41.8074 24.9641 41.9561 24.8567 42.0799 24.7236C42.2036 24.5905 42.2999 24.4343 42.3632 24.264C42.4266 24.0936 42.4558 23.9125 42.4491 23.7309C42.4425 23.5493 42.4001 23.3708 42.3245 23.2055C42.2488 23.0403 42.1414 22.8916 42.0083 22.7678C40.0921 21.0734 37.705 20.0034 35.1651 19.7005V17.1682C35.1651 16.7984 35.0182 16.4438 34.7567 16.1823C34.4952 15.9208 34.1406 15.7739 33.7708 15.7739C33.401 15.7739 33.0464 15.9208 32.7849 16.1823C32.5234 16.4438 32.3765 16.7984 32.3765 17.1682V19.6779C27.6285 20.1677 24.2823 23.3105 24.2823 27.4254C24.2823 32.0303 29.5579 33.4999 32.3765 34.2083V44.8047C30.2135 44.3149 27.214 43.0563 26.0232 41.9408C25.7644 41.682 25.4133 41.5366 25.0472 41.5366C24.6812 41.5366 24.3301 41.682 24.0713 41.9408C23.8124 42.1997 23.667 42.5508 23.667 42.9168C23.667 43.2829 23.8124 43.634 24.0713 43.8928C25.7444 45.5659 29.6558 47.1712 32.3615 47.5933V49.8994C32.3615 50.2692 32.5084 50.6239 32.7698 50.8853C33.0313 51.1468 33.386 51.2937 33.7557 51.2937C34.1255 51.2937 34.4802 51.1468 34.7416 50.8853C35.0031 50.6239 35.15 50.2692 35.15 49.8994V47.6385C38.7072 47.2164 43.2443 45.1288 43.2443 40.3808C43.3648 36.7105 40.4105 33.7109 35.1726 32.1056ZM32.3841 31.352C30.1231 30.7265 27.1085 29.6789 27.1085 27.4405C27.1085 24.5088 29.6935 22.9186 32.3841 22.489V31.3369V31.352ZM35.1726 44.9178V35.0374C37.6823 35.9417 40.4482 37.6224 40.4482 40.4788C40.5462 43.5537 37.1321 44.5259 35.1726 44.8726V44.9178Z" fill="#757575"/>
</svg>
