<svg width="92" height="54" viewBox="0 0 92 54" fill="none" xmlns="http://www.w3.org/2000/svg">
<path d="M46.0778 0C54.2234 0 60.8026 6.57918 60.8026 14.8815C60.8026 23.0271 54.2234 29.6063 46.0778 29.6063C37.7755 29.6063 31.1963 23.0271 31.1963 14.8815C31.1963 6.57918 37.7755 0 46.0778 0ZM46.0778 3.13294C39.4986 3.13294 34.3292 8.3023 34.3292 14.8815C34.3292 21.304 39.4986 26.4734 46.0778 26.4734C52.5003 26.4734 57.6696 21.304 57.6696 14.8815C57.6696 8.3023 52.5003 3.13294 46.0778 3.13294Z" fill="#757575"/>
<path d="M26.9673 52.3201C26.9673 53.1034 26.184 53.73 25.2441 53.5733C24.4609 53.5733 23.8343 52.7901 23.991 51.8502C25.2441 40.7283 34.643 32.1127 46.0782 32.1127C57.3568 32.1127 66.9123 40.7283 68.1654 51.8502C68.1654 52.7901 67.5389 53.5733 66.7556 53.5733C65.8157 53.73 65.0325 53.1034 65.0325 52.3201C63.936 42.608 55.7903 35.2456 46.0782 35.2456C36.3661 35.2456 28.0638 42.608 26.9673 52.3201Z" fill="#757575"/>
<path d="M75.0583 12.6884C81.4808 12.6884 86.6502 17.8578 86.6502 24.1237C86.6502 30.5462 81.4808 35.7155 75.0583 35.7155C68.7924 35.7155 63.623 30.5462 63.623 24.1237C63.623 17.8578 68.7924 12.6884 75.0583 12.6884ZM75.0583 15.8214C70.5155 15.8214 66.756 19.5809 66.756 24.1237C66.756 28.8231 70.5155 32.5826 75.0583 32.5826C79.7577 32.5826 83.5172 28.8231 83.5172 24.1237C83.5172 19.5809 79.7577 15.8214 75.0583 15.8214Z" fill="#757575"/>
<path d="M68.7916 41.9815C68.0084 42.4514 67.0685 42.1381 66.5986 41.3549C66.2853 40.5716 66.5986 39.6317 67.3818 39.1618C69.7315 38.0653 72.3945 37.282 75.0575 37.282C83.5165 37.282 90.7222 43.5479 91.9754 51.8502C92.132 52.6335 91.5055 53.5733 90.7222 53.5733C89.7823 53.73 88.9991 53.1034 88.8425 52.3202C87.9026 45.4277 81.95 40.415 75.0575 40.415C72.8645 40.415 70.6714 41.0416 68.7916 41.9815Z" fill="#757575"/>
<path d="M16.9425 12.6884C23.2084 12.6884 28.3777 17.8578 28.3777 24.1237C28.3777 30.5462 23.2084 35.7155 16.9425 35.7155C10.5199 35.7155 5.35059 30.5462 5.35059 24.1237C5.35059 17.8578 10.5199 12.6884 16.9425 12.6884ZM16.9425 15.8214C12.2431 15.8214 8.48353 19.5809 8.48353 24.1237C8.48353 28.8231 12.2431 32.5826 16.9425 32.5826C21.4852 32.5826 25.2448 28.8231 25.2448 24.1237C25.2448 19.5809 21.4852 15.8214 16.9425 15.8214Z" fill="#757575"/>
<path d="M3.15693 52.3202C3.00028 53.1034 2.21705 53.73 1.43381 53.5733C0.493931 53.5733 -0.132658 52.6335 0.0239895 51.8502C1.27717 43.5479 8.48293 37.282 16.9419 37.282C19.6049 37.282 22.2679 38.0653 24.7742 39.1618C25.4008 39.6317 25.7141 40.5716 25.4008 41.3549C24.9309 42.1381 23.991 42.4514 23.2078 41.9815C21.328 41.0416 19.1349 40.415 16.9419 40.415C10.0494 40.415 4.09681 45.4277 3.15693 52.3202Z" fill="#757575"/>
</svg>
