<svg width="26" height="26" viewBox="0 0 26 26" fill="none" xmlns="http://www.w3.org/2000/svg">
<path d="M12.9672 25.157L15.2972 22.7546C18.6146 19.7287 21.1022 17.4109 22.8953 15.1631C24.9686 12.5613 25.9346 10.2179 25.9346 7.7889C25.9346 5.67064 25.1586 3.70383 23.7494 2.253C22.3402 0.802182 20.4325 0 18.38 0C16.3995 0 14.4417 0.800616 12.9692 2.17937C11.4962 0.800616 9.5389 0 7.55834 0C5.50381 0 3.59619 0.800093 2.18902 2.253C0.781853 3.70592 -0.000244141 5.67064 -0.000244141 7.7889C-0.000244141 10.2179 0.965727 12.5613 3.03899 15.1631C4.83113 17.4088 7.31874 19.7287 10.6371 22.7546L12.9672 25.157ZM18.378 1.94279C21.6108 1.94279 24.0482 4.45587 24.0482 7.7889C24.0482 11.9727 20.4265 15.4796 14.0253 21.3153L13.9833 21.356L12.9672 22.4068L11.9303 21.3377L11.9085 21.3179C5.50736 15.4796 1.8856 11.9727 1.8856 7.79151C1.8856 4.45848 4.32307 1.9454 7.5558 1.9454C9.3059 1.9454 11.1016 2.81129 12.2469 4.20467L12.9672 5.07944L13.687 4.20206C14.8307 2.80868 16.6284 1.94279 18.378 1.94279Z" fill="#F24B6A"/>
</svg>
