<svg width="25" height="25" viewBox="0 0 25 25" fill="none" xmlns="http://www.w3.org/2000/svg">
<path d="M22.7787 15.0257V17.9473C22.7787 19.2266 22.2705 20.4536 21.3658 21.3582C20.4612 22.2629 19.2343 22.7711 17.9549 22.7711H6.82376C5.54442 22.7711 4.31748 22.2629 3.41285 21.3582C2.50822 20.4536 2 19.2266 2 17.9473V6.82376C2 5.54442 2.50822 4.31748 3.41285 3.41285C4.31748 2.50822 5.54442 2 6.82376 2H15.8169" stroke="#F24B6A" stroke-width="3" stroke-linecap="round" stroke-linejoin="round"/>
<path d="M20.625 10.3009L22.7097 7.69884C22.8974 7.46315 22.9995 7.17079 22.9995 6.86952C22.9995 6.56825 22.8974 6.27589 22.7097 6.0402L20.625 3.43811" stroke="#F24B6A" stroke-width="3" stroke-linecap="round" stroke-linejoin="round"/>
<path d="M10.0195 17.0492V13.7243C10.0195 11.9082 10.741 10.1665 12.0251 8.88233C13.3093 7.59815 15.051 6.87671 16.8671 6.87671H21.9572" stroke="#F24B6A" stroke-width="3" stroke-linecap="round" stroke-linejoin="round"/>
</svg>
