<svg width="18" height="18" viewBox="0 0 18 18" fill="none" xmlns="http://www.w3.org/2000/svg">
<path d="M8.7975 17.572L10.3783 15.9434C12.6288 13.8921 14.3164 12.3208 15.5329 10.797C16.9394 9.03312 17.5947 7.44451 17.5947 5.79784C17.5947 4.36182 17.0683 3.02848 16.1123 2.04494C15.1562 1.06139 13.8621 0.517578 12.4697 0.517578C11.126 0.517578 9.79784 1.06033 8.79887 1.99502C7.79957 1.06033 6.47173 0.517578 5.1281 0.517578C3.73428 0.517578 2.44013 1.05998 1.48549 2.04494C0.530857 3.0299 0.000274658 4.36182 0.000274658 5.79784C0.000274658 7.44451 0.6556 9.03312 2.06212 10.797C3.27793 12.3194 4.96555 13.8921 7.21675 15.9434L8.7975 17.572ZM12.4683 1.83463C14.6614 1.83463 16.315 3.53831 16.315 5.79784C16.315 8.63411 13.858 11.0115 9.51537 14.9677L9.48685 14.9953L8.7975 15.7076L8.09407 14.9829L8.07929 14.9694C3.73669 11.0115 1.27965 8.63411 1.27965 5.79961C1.27965 3.54008 2.93326 1.8364 5.12638 1.8364C6.31366 1.8364 7.53187 2.42341 8.30884 3.36801L8.7975 3.96104L9.28582 3.36624C10.0618 2.42164 11.2813 1.83463 12.4683 1.83463Z" fill="#F24B6A"/>
</svg>
