<svg width="42" height="41" viewBox="0 0 42 41" fill="none" xmlns="http://www.w3.org/2000/svg">
<path d="M33.0246 17.7084L34.7903 15.9159L41.6895 8.83829C41.8846 8.64503 41.9968 8.38026 42.0014 8.10223C42.006 7.8242 41.9026 7.55569 41.714 7.35576C41.5254 7.15583 41.267 7.04087 40.9956 7.03615C40.7243 7.03144 40.4622 7.13737 40.2671 7.33063L34.0873 13.6544L32.0927 11.6107L38.2644 5.27854C38.453 5.0775 38.5559 4.80792 38.5506 4.52911C38.5452 4.25029 38.432 3.98508 38.2358 3.79182C38.0396 3.59855 37.7765 3.49307 37.5044 3.49856C37.2323 3.50406 36.9734 3.62009 36.7848 3.82113L30.6132 10.1533L28.6104 8.10959L34.7903 1.77741C34.9649 1.57846 35.0585 1.31857 35.0519 1.0511C35.0454 0.783626 34.9391 0.528876 34.755 0.339152C34.5709 0.149427 34.3229 0.0391247 34.0619 0.0308918C33.8009 0.0226589 33.5467 0.11712 33.3516 0.294881L26.4606 7.36414L24.6949 9.21521C24.0612 9.87483 23.6424 10.7193 23.496 11.6327C23.3496 12.5461 23.4829 13.4835 23.8775 14.3161L19.872 18.3449L3.15539 0.839314C3.06048 0.741812 2.94772 0.664454 2.82358 0.611673C2.69944 0.558891 2.56636 0.531722 2.43196 0.531722C2.29756 0.531722 2.16448 0.558891 2.04034 0.611673C1.9162 0.664454 1.80344 0.741812 1.70853 0.839314C1.59575 0.943947 1.51127 1.07667 1.4633 1.22461L0.572288 3.73737C-0.0474277 5.49606 -0.166685 7.39897 0.228409 9.22443C0.623503 11.0499 1.51668 12.7227 2.8039 14.0481L11.1254 22.6166C11.5626 23.0637 12.0874 23.4106 12.6652 23.6344C13.2429 23.8582 13.8604 23.9538 14.4769 23.9149L2.82842 35.8087C2.27125 36.3796 1.95823 37.1539 1.95823 37.9613C1.95823 38.7687 2.27125 39.543 2.82842 40.1139C3.38559 40.6848 4.14128 41.0055 4.92924 41.0055C5.7172 41.0055 6.47288 40.6848 7.03005 40.1139L19.7004 27.1312L32.1581 39.8877C32.7346 40.4797 33.5163 40.814 34.3325 40.8175C35.006 40.8232 35.6599 40.586 36.1799 40.1474C36.4817 39.8945 36.7318 39.5831 36.9161 39.2311C37.1004 38.8791 37.2152 38.4933 37.2539 38.0959C37.2926 37.6984 37.2545 37.297 37.1418 36.9146C37.029 36.5322 36.8438 36.1763 36.5968 35.8673L36.4088 35.6579L24.0246 22.692L28.0464 18.5795C28.8622 18.9796 29.7791 19.1106 30.6706 18.9546C31.5622 18.7986 32.3846 18.3632 33.0246 17.7084ZM5.58319 38.6481C5.40784 38.8221 5.17332 38.9194 4.92924 38.9194C4.68515 38.9194 4.45063 38.8221 4.27528 38.6481C4.18927 38.5602 4.12103 38.4557 4.07447 38.3408C4.02791 38.2258 4.00394 38.1025 4.00394 37.978C4.00394 37.8535 4.02791 37.7303 4.07447 37.6153C4.12103 37.5003 4.18927 37.3959 4.27528 37.308L16.9456 24.2918L18.2535 25.632L5.58319 38.6481ZM35.2399 37.8608C35.2324 37.9934 35.198 38.123 35.1389 38.2413C35.0798 38.3596 34.9973 38.4639 34.8965 38.5476C34.7026 38.6937 34.463 38.7617 34.2233 38.7385C33.9837 38.7153 33.7607 38.6027 33.5968 38.422L16.9783 21.377C16.8011 21.1988 16.567 21.0922 16.3192 21.0768C16.0713 21.0614 15.8264 21.1383 15.6295 21.2932C15.1839 21.6469 14.628 21.8223 14.0655 21.7868C13.503 21.7514 12.9722 21.5075 12.5723 21.1006L4.25076 12.5656C3.23698 11.5244 2.53337 10.2091 2.22215 8.77332C1.91093 7.33757 2.00497 5.84071 2.49327 4.4577L2.82842 3.51122L34.9701 37.1321C35.063 37.2234 35.1353 37.3345 35.1819 37.4574C35.2285 37.5804 35.2483 37.7124 35.2399 37.844V37.8608ZM27.1636 16.519L22.5941 21.2011L21.3025 19.8442L25.8557 15.1705C26.0322 14.9921 26.1381 14.7532 26.1532 14.4997C26.1683 14.2461 26.0914 13.9958 25.9374 13.7968C25.5959 13.335 25.43 12.7617 25.4706 12.1838C25.5112 11.6058 25.7556 11.0628 26.1581 10.6559L27.1963 9.58375L32.6159 15.1621L31.5777 16.2258C31.1775 16.6346 30.6459 16.8803 30.082 16.9173C29.518 16.9543 28.9602 16.78 28.5123 16.4269C28.3151 16.2713 28.0693 16.1948 27.821 16.2117C27.5726 16.2287 27.3389 16.3379 27.1636 16.519Z" fill="#A49F9F"/>
</svg>
