<svg width="44" height="43" viewBox="0 0 44 43" fill="none" xmlns="http://www.w3.org/2000/svg">
<path d="M44 10.0411C44 8.534 43.3995 7.08862 42.3307 6.02293C41.2618 4.95724 39.8121 4.35854 38.3005 4.35854H35.3938V1.28996C35.3938 0.988534 35.2737 0.699457 35.0599 0.48632C34.8461 0.273182 34.5562 0.153442 34.2539 0.153442C33.9516 0.153442 33.6616 0.273182 33.4479 0.48632C33.2341 0.699457 33.114 0.988534 33.114 1.28996V4.35854H10.886V1.28996C10.886 0.988534 10.7659 0.699457 10.5521 0.48632C10.3384 0.273182 10.0484 0.153442 9.74611 0.153442C9.4438 0.153442 9.15386 0.273182 8.94009 0.48632C8.72631 0.699457 8.60622 0.988534 8.60622 1.28996V4.35854H5.69948C4.18789 4.35854 2.7382 4.95724 1.66934 6.02293C0.600479 7.08862 0 8.534 0 10.0411L0 37.3174C0 38.8246 0.600479 40.2699 1.66934 41.3356C2.7382 42.4013 4.18789 43 5.69948 43H38.3005C39.8121 43 41.2618 42.4013 42.3307 41.3356C43.3995 40.2699 44 38.8246 44 37.3174V10.0411ZM5.69948 6.63157H8.60622V8.79095C8.60622 9.09237 8.72631 9.38145 8.94009 9.59458C9.15386 9.80772 9.4438 9.92746 9.74611 9.92746C10.0484 9.92746 10.3384 9.80772 10.5521 9.59458C10.7659 9.38145 10.886 9.09237 10.886 8.79095V6.63157H33.114V8.79095C33.114 9.09237 33.2341 9.38145 33.4479 9.59458C33.6616 9.80772 33.9516 9.92746 34.2539 9.92746C34.5562 9.92746 34.8461 9.80772 35.0599 9.59458C35.2737 9.38145 35.3938 9.09237 35.3938 8.79095V6.63157H38.3005C39.2075 6.63157 40.0773 6.99079 40.7186 7.6302C41.3599 8.26962 41.7202 9.13685 41.7202 10.0411V14.2462H2.27979V10.0411C2.27979 9.59336 2.36825 9.15 2.5401 8.73634C2.71196 8.32267 2.96385 7.94681 3.2814 7.6302C3.92271 6.99079 4.79252 6.63157 5.69948 6.63157ZM38.3005 40.727H5.69948C4.79252 40.727 3.92271 40.3678 3.2814 39.7284C2.64008 39.0889 2.27979 38.2217 2.27979 37.3174V16.5192H41.7202V37.3174C41.7202 38.2217 41.3599 39.0889 40.7186 39.7284C40.0773 40.3678 39.2075 40.727 38.3005 40.727Z" fill="#A7A7A7"/>
<path d="M29.6943 22.8269L19.5492 31.7486L14.9896 27.1457C14.7477 26.9648 14.4437 26.8872 14.1445 26.9298C13.8452 26.9724 13.5751 27.1318 13.3938 27.373C13.2458 27.5697 13.1658 27.809 13.1658 28.0549C13.1658 28.3008 13.2458 28.5401 13.3938 28.7368L18.6373 34.1352C18.7482 34.2482 18.8815 34.3369 19.0287 34.3956C19.1759 34.4543 19.3337 34.4818 19.4922 34.4762C19.7615 34.4549 20.0189 34.3562 20.2331 34.1921L31.2331 24.5317C31.4499 24.3178 31.581 24.0325 31.602 23.7292C31.623 23.4258 31.5324 23.1253 31.3471 22.8837C31.1326 22.6628 30.8405 22.5333 30.5322 22.5227C30.2239 22.5121 29.9235 22.6212 29.6943 22.8269Z" fill="#A7A7A7"/>
<path d="M21.9998 1.13654V8.87051" stroke="#A7A7A7" stroke-width="4" stroke-linecap="round" stroke-linejoin="round"/>
</svg>
