<svg width="45" height="45" viewBox="0 0 45 45" fill="none" xmlns="http://www.w3.org/2000/svg">
<path d="M35.3904 45C35.3007 45 35.211 44.993 35.1224 44.9791C34.8465 44.9363 34.5844 44.8293 34.3574 44.6668C34.1304 44.5042 33.9447 44.2906 33.8153 44.0432L24.589 26.3597L15.9152 33.5134L17.1707 39.5811C17.2307 39.8699 17.2178 40.1691 17.1332 40.4517C17.0486 40.7343 16.8949 40.9914 16.6861 41.1997L15.1949 42.6909C14.9974 42.8884 14.7561 43.0366 14.4906 43.1235C14.2251 43.2105 13.9429 43.2336 13.6668 43.1912C13.3906 43.1488 13.1284 43.042 12.9012 42.8794C12.6741 42.7168 12.4884 42.5029 12.3593 42.2552L10.2404 38.1947L8.99626 39.2214C8.55778 39.5828 8.00041 39.7679 7.43285 39.7407C6.86528 39.7134 6.32822 39.4757 5.9264 39.074C5.52457 38.6722 5.28679 38.1352 5.25943 37.5676C5.23207 37.0001 5.41709 36.4427 5.77841 36.0041L6.80512 34.7592L2.74359 32.6403C2.49607 32.511 2.28245 32.3252 2.12002 32.098C1.95758 31.8708 1.85089 31.6086 1.80857 31.3325C1.76624 31.0565 1.78947 30.7743 1.87637 30.5089C1.96328 30.2435 2.11142 30.0022 2.30882 29.8047L3.80002 28.3135C4.00878 28.1053 4.26589 27.952 4.54835 27.8675C4.83081 27.7829 5.12983 27.7697 5.41866 27.829L11.4863 29.0844L18.6402 20.4107L0.955588 11.1844C0.708062 11.0551 0.494446 10.8693 0.332013 10.6421C0.169579 10.4149 0.0628863 10.1527 0.0205601 9.87666C-0.0217661 9.6006 0.00146195 9.31845 0.0883668 9.05303C0.175272 8.78761 0.323414 8.54637 0.520817 8.3488L2.90602 5.96362C3.11513 5.75593 3.37226 5.60304 3.65462 5.51852C3.93697 5.43399 4.23582 5.42045 4.52466 5.47908L27.8097 10.2974L35.5903 1.84381C35.629 1.80134 35.6717 1.76274 35.7178 1.72856C36.2057 1.19767 36.7959 0.770971 37.453 0.474118C38.1101 0.177264 38.8204 0.0163949 39.5413 0.00118906C40.2621 -0.0140168 40.9786 0.116755 41.6476 0.385636C42.3167 0.654517 42.9244 1.05595 43.4342 1.56579C43.944 2.07562 44.3455 2.68332 44.6144 3.35233C44.8832 4.02133 45.014 4.73781 44.9988 5.45867C44.9836 6.17953 44.8227 6.88986 44.5259 7.54693C44.229 8.204 43.8023 8.79423 43.2714 9.28212C43.2372 9.32825 43.1986 9.37094 43.1562 9.40958L34.7025 17.1901L39.5208 40.4751C39.5808 40.7639 39.5679 41.0631 39.4834 41.3457C39.3988 41.6283 39.2451 41.8854 39.0363 42.0938L36.6511 44.4789C36.3163 44.8125 35.863 44.9999 35.3904 45ZM24.871 24.0741C24.9308 24.0743 24.9905 24.0801 25.0491 24.0915C25.1794 24.1183 25.3022 24.1738 25.4085 24.2538C25.5148 24.3338 25.602 24.4364 25.6638 24.5542L35.4009 43.2164L37.7721 40.8294L32.849 17.0557C32.8177 16.9045 32.8262 16.7478 32.8736 16.6009C32.9211 16.454 33.0058 16.3219 33.1196 16.2175L41.816 8.21349C41.8557 8.1574 41.902 8.10636 41.954 8.06151C42.3294 7.74344 42.6348 7.35097 42.8509 6.90888C43.067 6.4668 43.189 5.98471 43.2093 5.49307C43.2296 5.00143 43.1477 4.51092 42.9688 4.05253C42.7899 3.59414 42.5179 3.17783 42.17 2.82989C41.8221 2.48195 41.4057 2.20995 40.9473 2.03107C40.4889 1.85219 39.9984 1.77032 39.5068 1.79062C39.0151 1.81093 38.533 1.93297 38.091 2.14904C37.6489 2.36511 37.2564 2.67051 36.9383 3.04595C36.8915 3.10025 36.8385 3.14889 36.7803 3.19086L28.7823 11.8803C28.677 11.9928 28.5449 12.0767 28.3983 12.1241C28.2516 12.1714 28.0954 12.1806 27.9442 12.1509L4.16318 7.2305L1.78499 9.61297L20.4455 19.3361C20.5636 19.3976 20.6665 19.4848 20.7465 19.5913C20.8266 19.6977 20.8819 19.8207 20.9083 19.9512C20.9348 20.0818 20.9317 20.2166 20.8994 20.3458C20.867 20.475 20.8062 20.5953 20.7214 20.698L12.5226 30.6384C12.4194 30.7642 12.2837 30.8593 12.1303 30.9134C11.9768 30.9674 11.8114 30.9783 11.6522 30.9449L5.05718 29.5804L3.57299 31.0689L8.61048 33.6845C8.72855 33.7462 8.83136 33.8334 8.9114 33.9398C8.99144 34.0462 9.04671 34.1692 9.07315 34.2997C9.09959 34.4303 9.09654 34.565 9.06422 34.6942C9.03191 34.8234 8.97115 34.9438 8.88637 35.0465L7.15773 37.1418C7.07918 37.2373 7.03901 37.3587 7.04507 37.4822C7.05112 37.6058 7.10296 37.7226 7.19047 37.8101C7.27799 37.8975 7.39492 37.9492 7.51847 37.9551C7.64202 37.961 7.76334 37.9207 7.85879 37.842L9.95324 36.1133C10.056 36.0286 10.1763 35.9678 10.3055 35.9355C10.4347 35.9032 10.5695 35.9001 10.7 35.9266C10.8305 35.953 10.9535 36.0083 11.0599 36.0883C11.1664 36.1684 11.2536 36.2712 11.3152 36.3892L13.9448 41.4284L15.422 39.9355L14.0548 33.3475C14.0219 33.1883 14.0331 33.0231 14.087 32.8697C14.141 32.7163 14.2359 32.5806 14.3613 32.4771L24.3018 24.2783C24.462 24.1461 24.6633 24.0738 24.871 24.0741Z" fill="#A7A7A7"/>
</svg>
