<svg width="52" height="42" viewBox="0 0 52 42" fill="none" xmlns="http://www.w3.org/2000/svg">
<path d="M13.5696 23.7551C16.4415 23.7551 18.7696 21.499 18.7696 18.7159C18.7696 15.9329 16.4415 13.6768 13.5696 13.6768C10.6977 13.6768 8.36963 15.9329 8.36963 18.7159C8.36963 21.499 10.6977 23.7551 13.5696 23.7551Z" stroke="#686868" stroke-width="2" stroke-miterlimit="10"/>
<path d="M25.7619 16.0485C25.159 16.0478 24.5619 16.1624 24.0047 16.3856C23.4475 16.6089 22.9413 16.9364 22.515 17.3496C22.0886 17.7627 21.7506 18.2533 21.5202 18.7932C21.2898 19.3332 21.1716 19.9118 21.1724 20.4961V25.831H51.4341V24.6479C51.4341 18.4202 41.0115 16.0485 33.4658 16.0485H25.7619Z" stroke="#686868" stroke-width="2" stroke-miterlimit="10"/>
<path d="M19.6914 27.4139V26.1268C19.6899 25.8125 19.56 25.5116 19.3302 25.2898C19.1003 25.0681 18.7892 24.9437 18.4649 24.9437H8.67532C8.35101 24.9437 8.03989 25.0681 7.81003 25.2898C7.58018 25.5116 7.4503 25.8125 7.4488 26.1268V27.4139H5.75315V5.7183C5.75315 5.44324 5.64079 5.17936 5.44061 4.98435C5.24043 4.78934 4.96873 4.67906 4.68489 4.67761H1.63837C1.35355 4.67761 1.08039 4.78726 0.878995 4.98242C0.677597 5.17759 0.564453 5.44229 0.564453 5.7183V40.4171C0.565947 40.6921 0.67975 40.9554 0.880986 41.1494C1.08222 41.3434 1.35452 41.4523 1.63837 41.4523H4.69619C4.98004 41.4523 5.25234 41.3434 5.45357 41.1494C5.65481 40.9554 5.76861 40.6921 5.77011 40.4171V34.3372H46.234V40.4171C46.234 40.6916 46.3466 40.9549 46.5469 41.1491C46.7472 41.3432 47.019 41.4523 47.3023 41.4523H50.3658C50.6491 41.4523 50.9208 41.3432 51.1211 41.1491C51.3215 40.9549 51.434 40.6916 51.434 40.4171V27.4139H19.6914Z" stroke="#686868" stroke-width="2" stroke-miterlimit="10"/>
<path d="M19.431 9.96321H20.8214L19.0466 11.5571C18.9619 11.6317 18.9026 11.7294 18.8765 11.8374C18.8504 11.9454 18.8587 12.0585 18.9003 12.1618C18.942 12.2651 19.015 12.3537 19.1098 12.4159C19.2045 12.4781 19.3165 12.511 19.431 12.5102H22.2571C22.407 12.5102 22.5507 12.4525 22.6567 12.3497C22.7627 12.247 22.8223 12.1077 22.8223 11.9624C22.8223 11.8172 22.7627 11.6778 22.6567 11.5751C22.5507 11.4724 22.407 11.4147 22.2571 11.4147H20.8723L22.6414 9.8208C22.7261 9.74621 22.7854 9.64846 22.8116 9.54049C22.8377 9.43251 22.8294 9.31939 22.7877 9.2161C22.7461 9.1128 22.673 9.02419 22.5783 8.96199C22.4835 8.89979 22.3715 8.86693 22.2571 8.86775H19.431C19.2811 8.86775 19.1373 8.92546 19.0313 9.02818C18.9253 9.1309 18.8658 9.27022 18.8658 9.41548C18.8658 9.56075 18.9253 9.70007 19.0313 9.80279C19.1373 9.90551 19.2811 9.96321 19.431 9.96321Z" stroke="#686868" stroke-miterlimit="10"/>
<path d="M24.8004 4.86389H26.5639L24.3595 6.82476C24.2633 6.91018 24.1961 7.0219 24.1668 7.14514C24.1376 7.26837 24.1476 7.39732 24.1956 7.5149C24.2439 7.63228 24.3273 7.73302 24.435 7.80425C24.5428 7.87547 24.67 7.91394 24.8004 7.91475H28.1917C28.3641 7.91475 28.5294 7.84838 28.6513 7.73026C28.7732 7.61213 28.8417 7.45191 28.8417 7.28486C28.8417 7.1178 28.7732 6.95758 28.6513 6.83946C28.5294 6.72133 28.3641 6.65497 28.1917 6.65497H26.4565L28.6382 4.69409C28.7357 4.60802 28.8039 4.49525 28.8337 4.37075C28.8635 4.24625 28.8535 4.11592 28.805 3.99705C28.7566 3.87819 28.6719 3.77642 28.5624 3.70526C28.4529 3.63409 28.3236 3.5969 28.1917 3.59863H24.8004C24.715 3.59863 24.6305 3.61492 24.5516 3.64658C24.4728 3.67823 24.4011 3.72463 24.3408 3.78312C24.2804 3.84161 24.2325 3.91105 24.1999 3.98747C24.1672 4.06389 24.1504 4.1458 24.1504 4.22852C24.1504 4.31124 24.1672 4.39315 24.1999 4.46957C24.2325 4.54599 24.2804 4.61543 24.3408 4.67392C24.4011 4.73241 24.4728 4.77881 24.5516 4.81046C24.6305 4.84212 24.715 4.85841 24.8004 4.85841V4.86389Z" stroke="#686868" stroke-miterlimit="10"/>
<path d="M31.5837 1.69797H34.2345L31.0863 4.53521C30.9788 4.63252 30.9039 4.75886 30.8713 4.89787C30.8387 5.03688 30.8499 5.18217 30.9035 5.31493C30.9571 5.44769 31.0506 5.56181 31.1718 5.64251C31.2931 5.72322 31.4366 5.7668 31.5837 5.76761H36.1054C36.3003 5.76761 36.4872 5.69259 36.625 5.55905C36.7628 5.42552 36.8402 5.2444 36.8402 5.05556C36.8402 4.86671 36.7628 4.6856 36.625 4.55206C36.4872 4.41853 36.3003 4.34351 36.1054 4.34351H33.4545L36.6084 1.50626C36.7163 1.40863 36.7913 1.2818 36.8237 1.14227C36.8561 1.00275 36.8444 0.856996 36.7901 0.724005C36.7359 0.591014 36.6415 0.476946 36.5194 0.396658C36.3972 0.316369 36.253 0.273581 36.1054 0.273866H31.5837C31.3888 0.273866 31.2019 0.348886 31.0641 0.482421C30.9263 0.615956 30.8489 0.797069 30.8489 0.985916C30.8489 1.17476 30.9263 1.35588 31.0641 1.48941C31.2019 1.62295 31.3888 1.69797 31.5837 1.69797V1.69797Z" stroke="#686868" stroke-miterlimit="10"/>
</svg>
