<svg width="50" height="37" viewBox="0 0 50 37" fill="none" xmlns="http://www.w3.org/2000/svg">
<path d="M43.7019 5.42126H35.4022V4.98639C35.4022 2.23694 33.1652 0 30.4155 0H19.2236C16.4742 0 14.2373 2.23694 14.2373 4.98639V5.42126H5.93756C2.66364 5.42126 0 8.08472 0 11.3588V30.9785C0 34.2526 2.66364 36.916 5.93756 36.916H43.7019C46.976 36.916 49.6394 34.2526 49.6394 30.9785V11.3588C49.6394 8.08472 46.976 5.42126 43.7019 5.42126ZM15.7863 4.98639C15.7863 3.09106 17.3284 1.54895 19.2236 1.54895H30.4155C32.3111 1.54895 33.8532 3.09106 33.8532 4.98639V5.42126H15.7863V4.98639ZM43.7019 35.3671H5.93756C3.51764 35.3671 1.54895 33.3984 1.54895 30.9785V18.9156H48.0905V30.9785C48.0905 33.3984 46.1218 35.3671 43.7019 35.3671ZM48.0905 17.3666H1.54895V11.3588C1.54895 8.93884 3.51764 6.97015 5.93756 6.97015H43.7019C46.1218 6.97015 48.0905 8.93884 48.0905 11.3588V17.3666Z" fill="#A7A7A7"/>
</svg>
