<svg width="28" height="35" viewBox="0 0 28 35" fill="none" xmlns="http://www.w3.org/2000/svg">
<path d="M26.4894 3.4993C24.2772 1.16177 20.046 0 13.9964 0C7.94684 0 3.69422 1.18976 1.48916 3.4993C1.01564 3.95667 0.640083 4.50166 0.384406 5.10248C0.128729 5.70329 -0.00194216 6.34788 2.1814e-05 6.9986V28.1834C0.00191185 28.9085 0.297443 29.6035 0.822001 30.1163C1.34656 30.6291 2.05747 30.918 2.79931 30.9198H4.63924L2.26236 33.8662C2.20329 33.9382 2.15938 34.021 2.13315 34.1097C2.10693 34.1983 2.09891 34.2912 2.10955 34.3829C2.1202 34.4747 2.1493 34.5634 2.19519 34.6441C2.24107 34.7248 2.30283 34.7958 2.37691 34.853C2.50381 34.9493 2.66015 35.0011 2.82078 35C2.92953 35.0006 3.03698 34.9769 3.13498 34.9308C3.23297 34.8848 3.31895 34.8175 3.38637 34.7341L4.1023 33.8382H23.8977L24.6137 34.7341C24.672 34.8085 24.7447 34.871 24.8277 34.918C24.9107 34.9649 25.0023 34.9955 25.0974 35.0078C25.1925 35.0202 25.2891 35.0141 25.3817 34.9899C25.4744 34.9658 25.5613 34.924 25.6375 34.867C25.7136 34.81 25.7775 34.739 25.8256 34.6578C25.8736 34.5767 25.9049 34.4871 25.9175 34.3942C25.9301 34.3012 25.9239 34.2068 25.8992 34.1162C25.8745 34.0256 25.8318 33.9407 25.7735 33.8662L23.3894 30.9198H24.3416C25.3344 30.9376 26.3004 30.6046 27.0622 29.982C27.3805 29.6774 27.6292 29.3104 27.7921 28.9051C27.955 28.4998 28.0283 28.0654 28.0072 27.6305V6.9986C28.0022 6.34638 27.8656 5.70152 27.6052 5.10103C27.3447 4.50054 26.9655 3.95622 26.4894 3.4993ZM1.43188 9.70706H26.5682V18.7003H1.43188V9.70706ZM2.58453 4.43011C3.91616 3.04439 6.98033 1.39972 14.0036 1.39972C21.0269 1.39972 24.0624 3.04439 25.4012 4.43011C25.7624 4.75952 26.0519 5.15677 26.2525 5.5981C26.453 6.03943 26.5603 6.51576 26.5682 6.9986V8.33533H1.43188V6.93561C1.46574 5.98514 1.87959 5.08556 2.58453 4.43011ZM22.7666 32.4245H5.23347L6.44339 30.9198H21.5423L22.7666 32.4245ZM26.5682 27.6165C26.5873 27.8597 26.5532 28.1042 26.468 28.3335C26.3828 28.5628 26.2485 28.7717 26.0742 28.9462C25.5435 29.3366 24.8906 29.5345 24.2271 29.5061H2.80647C2.44503 29.508 2.09754 29.3699 1.83996 29.122C1.58238 28.8741 1.43566 28.5367 1.43188 28.1834V20.1H26.5682V27.6305V27.6165Z" fill="#ADADAD"/>
<path d="M5.95655 22.2766C5.42414 22.2766 4.90369 22.4309 4.46101 22.72C4.01833 23.0092 3.6733 23.4202 3.46956 23.901C3.26581 24.3818 3.21251 24.9109 3.31637 25.4214C3.42024 25.9319 3.67662 26.4007 4.05309 26.7688C4.42956 27.1368 4.90921 27.3874 5.43138 27.4889C5.95356 27.5905 6.49481 27.5384 6.98669 27.3392C7.47857 27.14 7.89899 26.8027 8.19477 26.37C8.49056 25.9372 8.64844 25.4285 8.64844 24.908C8.64844 24.2101 8.36483 23.5408 7.86 23.0473C7.35518 22.5538 6.67048 22.2766 5.95655 22.2766ZM5.95655 26.1398C5.70733 26.1398 5.46372 26.0675 5.25651 25.9322C5.04929 25.7968 4.88779 25.6045 4.79242 25.3794C4.69705 25.1543 4.6721 24.9067 4.72072 24.6677C4.76934 24.4288 4.88935 24.2093 5.06557 24.037C5.24178 23.8648 5.4663 23.7475 5.71072 23.6999C5.95515 23.6524 6.2085 23.6768 6.43874 23.77C6.66898 23.8633 6.86577 24.0211 7.00423 24.2237C7.14268 24.4263 7.21658 24.6644 7.21658 24.908C7.21658 25.2347 7.08383 25.548 6.84753 25.779C6.61122 26.01 6.29073 26.1398 5.95655 26.1398Z" fill="#ADADAD"/>
<path d="M22.0498 22.2766C21.5174 22.2766 20.9969 22.4309 20.5543 22.72C20.1116 23.0092 19.7666 23.4202 19.5628 23.901C19.3591 24.3818 19.3058 24.9109 19.4096 25.4214C19.5135 25.9319 19.7699 26.4007 20.1463 26.7688C20.5228 27.1368 21.0025 27.3874 21.5246 27.4889C22.0468 27.5905 22.5881 27.5384 23.0799 27.3392C23.5718 27.14 23.9922 26.8027 24.288 26.37C24.5838 25.9372 24.7417 25.4285 24.7417 24.908C24.7398 24.2107 24.4556 23.5424 23.9512 23.0493C23.4468 22.5562 22.7632 22.2784 22.0498 22.2766ZM22.0498 26.1398C21.8006 26.1398 21.557 26.0675 21.3498 25.9322C21.1426 25.7968 20.9811 25.6045 20.8857 25.3794C20.7903 25.1543 20.7654 24.9067 20.814 24.6677C20.8626 24.4288 20.9826 24.2093 21.1588 24.037C21.335 23.8648 21.5596 23.7475 21.804 23.6999C22.0484 23.6524 22.3018 23.6768 22.532 23.77C22.7622 23.8633 22.959 24.0211 23.0975 24.2237C23.2359 24.4263 23.3098 24.6644 23.3098 24.908C23.3098 25.2347 23.1771 25.548 22.9408 25.779C22.7045 26.01 22.384 26.1398 22.0498 26.1398Z" fill="#ADADAD"/>
<path d="M10.6744 5.73181H17.3326C17.5224 5.73181 17.7045 5.65808 17.8388 5.52683C17.9731 5.39558 18.0485 5.21757 18.0485 5.03195C18.0485 4.84634 17.9731 4.66833 17.8388 4.53708C17.7045 4.40583 17.5224 4.33209 17.3326 4.33209H10.6744C10.4845 4.33209 10.3024 4.40583 10.1682 4.53708C10.0339 4.66833 9.9585 4.84634 9.9585 5.03195C9.9585 5.21757 10.0339 5.39558 10.1682 5.52683C10.3024 5.65808 10.4845 5.73181 10.6744 5.73181Z" fill="#ADADAD"/>
</svg>
