<svg width="18" height="16" viewBox="0 0 18 16" fill="none" xmlns="http://www.w3.org/2000/svg">
<path d="M17.9904 3.57839C17.9904 3.05672 17.5652 2.63237 17.0427 2.63237H11.9828V1.31389C11.9828 0.589398 11.3923 0 10.6666 0H7.33336C6.60765 0 6.01718 0.589398 6.01718 1.31389V2.63237H0.957336C0.434793 2.63237 0.0096407 3.05672 0.0096407 3.57758L6.75822e-07 8.17134C-0.000269597 8.31282 0.0805444 8.44189 0.208027 8.50359C0.416819 8.60469 0.631805 8.69839 0.847872 8.79076V15.0542C0.847872 15.5757 1.27293 16 1.79548 16H16.2044C16.727 16 17.1521 15.5757 17.1521 15.0542V8.6971C17.3732 8.59538 17.5909 8.48986 17.8031 8.37821C17.9244 8.31435 18.0003 8.18852 18 8.05154L17.9904 3.57839ZM6.75523 1.31389C6.75523 0.995671 7.01461 0.736815 7.33336 0.736815H10.6666C10.98 0.736815 11.2448 1.00107 11.2448 1.31389V2.63237H6.75523V1.31389ZM16.4141 15.0542C16.4141 15.1655 16.3161 15.2632 16.2044 15.2632H1.79548C1.68187 15.2632 1.58592 15.1675 1.58592 15.0542V9.08286C3.28838 9.71049 5.19236 10.0866 7.27083 10.2001V10.7568C7.27083 11.1366 7.58021 11.4455 7.96059 11.4455H10.0394C10.4198 11.4455 10.7292 11.1366 10.7292 10.7568V10.1938C12.8347 10.0678 14.7393 9.67125 16.4141 9.01152V15.0542ZM8.00888 10.7086V9.38135H9.99112V10.7086H8.00888ZM10.7292 9.45305V9.33323C10.7292 8.95349 10.4198 8.64453 10.0394 8.64453H7.96059C7.58021 8.64453 7.27083 8.95349 7.27083 9.33323V9.4617C4.81927 9.3236 2.62246 8.81354 0.738499 7.93947L0.747688 3.57839C0.747688 3.46497 0.843728 3.36918 0.957336 3.36918H17.0427C17.1563 3.36918 17.2523 3.46497 17.2523 3.5792L17.2615 7.82812C15.4228 8.75505 13.2257 9.29865 10.7292 9.45305Z" fill="white"/>
</svg>
