<svg width="17" height="16" viewBox="0 0 17 16" fill="none" xmlns="http://www.w3.org/2000/svg">
<path d="M15.4085 6.31634L14.817 5.62345C14.6311 5.40375 14.5297 5.15025 14.5128 4.87985L14.4283 3.95036C14.3269 2.66596 13.3298 1.66887 12.0623 1.58437L11.1497 1.51677C10.8793 1.49987 10.6089 1.38157 10.4061 1.21257L9.71323 0.621072C8.73303 -0.207024 7.33034 -0.207024 6.35014 0.621072L5.65725 1.21257C5.43755 1.39847 5.18405 1.49987 4.91365 1.51677L3.96726 1.56747C2.68286 1.66887 1.68577 2.66596 1.58437 3.93346L1.51677 4.84605C1.49987 5.11645 1.38157 5.38685 1.21257 5.58965L0.621072 6.28255C-0.207024 7.26274 -0.207024 8.66543 0.621072 9.64563L1.21257 10.3385C1.39847 10.5582 1.49987 10.8117 1.51677 11.0821L1.58437 12.0454C1.68577 13.3298 2.68286 14.3269 3.95036 14.4114L4.86295 14.479C5.13335 14.4959 5.40375 14.6142 5.60655 14.7832L6.29945 15.3747C6.78954 15.7972 7.38104 16 7.97254 16C8.56403 16 9.17243 15.7972 9.64563 15.3747L10.3385 14.7832C10.5582 14.5973 10.8117 14.4959 11.0821 14.479L11.9947 14.4114C13.2791 14.31 14.2762 13.3129 14.3776 12.0454L14.4452 11.1328C14.4621 10.8624 14.5804 10.592 14.7494 10.3892L15.3409 9.69633C16.2366 8.69923 16.2366 7.27964 15.4085 6.31634ZM14.4452 8.83443L13.8537 9.52733C13.4988 9.94983 13.2791 10.4568 13.2453 11.0145L13.1777 11.9271C13.127 12.5693 12.62 13.0763 11.9778 13.127L11.0652 13.1946C10.5244 13.2453 10.0005 13.4481 9.57803 13.803L8.85133 14.4283C8.36124 14.8508 7.63454 14.8508 7.14444 14.4283L6.45154 13.8368C6.02905 13.4819 5.52205 13.2622 4.96435 13.2284L4.05176 13.1608C3.40956 13.1101 2.90256 12.6031 2.85186 11.9609L2.78426 11.0483C2.73356 10.5075 2.53076 9.98363 2.17586 9.56113L1.56747 8.83443C1.14497 8.34434 1.14497 7.61764 1.56747 7.12754L2.15896 6.43464C2.51386 6.01215 2.73356 5.50515 2.76736 4.94745L2.83496 4.03486C2.88566 3.39266 3.39266 2.88566 4.03486 2.83496L4.94745 2.76736C5.48825 2.71666 6.01215 2.51386 6.43464 2.15896L7.12754 1.56747C7.38104 1.36467 7.66834 1.24637 7.97254 1.24637C8.27674 1.24637 8.58093 1.34777 8.81753 1.56747L9.51043 2.15896C9.93293 2.51386 10.4399 2.73356 10.9976 2.76736L11.9102 2.83496C12.5524 2.88566 13.0594 3.39266 13.1101 4.03486L13.1777 4.94745C13.2284 5.48825 13.4312 6.01215 13.7861 6.43464L14.3776 7.12754C14.8677 7.63454 14.8677 8.34434 14.4452 8.83443Z" fill="white"/>
<path d="M8.29363 7.44859H7.70213C7.24583 7.44859 6.89093 7.05989 6.94163 6.60359C6.97543 6.19799 7.34723 5.91069 7.75283 5.91069H8.42883C8.68233 5.91069 8.90202 6.09659 8.95272 6.33319C8.96962 6.40079 9.03722 6.45149 9.10482 6.45149H9.88222C9.96672 6.45149 10.0512 6.38389 10.0343 6.28249C9.94982 5.5051 9.32452 4.8967 8.53023 4.846V4.0686C8.53023 3.9841 8.46263 3.9165 8.37813 3.9165H7.60073C7.51623 3.9165 7.44863 3.9841 7.44863 4.0686V4.846C6.48534 4.9812 5.75864 5.84309 5.86004 6.85709C5.96144 7.82039 6.82333 8.51328 7.78663 8.51328H8.29363C8.74993 8.51328 9.10482 8.90198 9.05412 9.35828C9.02032 9.76388 8.64853 10.0512 8.24293 10.0512H7.56693C7.31343 10.0512 7.09373 9.86528 7.04303 9.62868C7.02613 9.56108 6.95853 9.51038 6.89093 9.51038H6.11354C6.02904 9.51038 5.94454 9.57798 5.96144 9.67938C6.04594 10.4568 6.67123 11.0652 7.46553 11.1159V11.8933C7.46553 11.9778 7.53313 12.0454 7.61763 12.0454H8.39503C8.47953 12.0454 8.54713 11.9778 8.54713 11.8933V11.099C9.37522 10.9638 10.0512 10.3216 10.1357 9.45968C10.2371 8.37808 9.37522 7.44859 8.29363 7.44859Z" fill="white"/>
</svg>
