<svg width="15" height="13" viewBox="0 0 15 13" fill="none" xmlns="http://www.w3.org/2000/svg">
<path d="M0.746631 13C0.659025 13 0.576378 12.9536 0.531253 12.8757C0.478359 12.7843 0.488938 12.6694 0.5577 12.5891C1.27607 11.752 1.66632 10.97 1.8698 10.4497H1.52483C0.68415 10.4497 0 9.76587 0 8.92519V1.52467C0 0.683984 0.68415 0 1.52483 0H12.5549C13.3957 0 14.0797 0.683984 14.0797 1.52467V8.92502C14.0797 9.7657 13.3957 10.4495 12.5549 10.4495H5.00872C3.81877 12.4015 0.918371 12.9716 0.792913 12.9954C0.777375 12.9983 0.762003 13 0.746631 13ZM1.525 0.497699C0.958702 0.497699 0.497699 0.958372 0.497699 1.52467V8.92502C0.497699 9.49132 0.958702 9.95199 1.525 9.95199H2.22237C2.30171 9.95199 2.37659 9.98984 2.42337 10.054C2.47015 10.1179 2.48353 10.2006 2.45973 10.2765C2.2989 10.7808 1.98997 11.5067 1.40318 12.32C2.33378 12.0281 3.93911 11.3605 4.64805 10.0801C4.69185 10.0009 4.77516 9.95199 4.86558 9.95199H12.5552C13.1217 9.95199 13.5823 9.49132 13.5823 8.92502V1.52467C13.5823 0.958372 13.1217 0.497699 12.5552 0.497699H1.525Z" fill="white"/>
</svg>
